<?xml version="1.0" encoding="UTF-8"?>
<svg xmlns="http://www.w3.org/2000/svg" xmlns:xlink="http://www.w3.org/1999/xlink" width="207px" height="149px" viewBox="0 0 207 149" version="1.1">
<defs>
<linearGradient id="linear0" gradientUnits="userSpaceOnUse" x1="0" y1="66.7" x2="185.04" y2="66.7" gradientTransform="matrix(1.115564,0,0,1.116942,0.288034,0)">
<stop offset="0" style="stop-color:rgb(56.470588%,80.784314%,63.137255%);stop-opacity:1;"/>
<stop offset="0.56" style="stop-color:rgb(23.529412%,74.509804%,78.823529%);stop-opacity:1;"/>
<stop offset="1" style="stop-color:rgb(0%,70.196078%,89.803922%);stop-opacity:1;"/>
</linearGradient>
</defs>
<g id="surface1">
<path style=" stroke:none;fill-rule:nonzero;fill:url(#linear0);" d="M 57.25 74.5 C 57.238281 69.261719 59.3125 64.230469 63.011719 60.523438 C 66.707031 56.8125 71.726562 54.730469 76.960938 54.730469 L 76.847656 54.730469 C 82.082031 54.730469 87.101562 56.8125 90.800781 60.523438 C 94.496094 64.230469 96.570312 69.261719 96.5625 74.5 C 96.5625 85.398438 87.734375 94.238281 76.847656 94.238281 L 76.960938 94.238281 C 66.074219 94.238281 57.25 85.398438 57.25 74.5 Z M 149.472656 39.507812 L 186.175781 39.507812 C 197.0625 39.507812 205.886719 30.671875 205.886719 19.769531 C 205.894531 14.53125 203.824219 9.5 200.125 5.792969 C 196.425781 2.082031 191.40625 0 186.175781 0 L 149.472656 0 C 144.238281 0 139.21875 2.082031 135.523438 5.792969 C 131.824219 9.5 129.75 14.53125 129.761719 19.769531 C 129.761719 30.671875 138.585938 39.507812 149.472656 39.507812 Z M 23.414062 148.964844 L 94.699219 148.964844 C 105.585938 148.964844 114.410156 140.128906 114.410156 129.230469 C 114.417969 123.988281 112.347656 118.960938 108.648438 115.253906 C 104.949219 111.542969 99.933594 109.460938 94.699219 109.460938 L 23.414062 109.460938 C 18.179688 109.460938 13.160156 111.542969 9.464844 115.253906 C 5.765625 118.960938 3.691406 123.988281 3.703125 129.230469 C 3.703125 140.128906 12.527344 148.964844 23.414062 148.964844 Z M 117.03125 94.238281 L 124.003906 94.238281 L 140.292969 54.730469 L 130.976562 54.730469 L 121.046875 80.644531 L 120.9375 80.644531 L 111.175781 54.730469 L 101.246094 54.730469 Z M 153.230469 94.238281 L 161.933594 94.238281 L 161.933594 54.730469 L 153.230469 54.730469 Z M 177.996094 94.238281 L 205.832031 94.238281 L 205.832031 86.226562 L 186.699219 86.226562 L 186.699219 78.1875 L 203.824219 78.1875 L 203.824219 70.144531 L 186.699219 70.144531 L 186.699219 62.773438 L 204.828125 62.773438 L 204.828125 54.730469 L 178.054688 54.730469 Z M 11.554688 39.539062 L 20.257812 39.539062 L 20.257812 7.707031 L 31.523438 7.707031 L 31.523438 0 L 0.289062 0 L 0.289062 7.707031 L 11.554688 7.707031 Z M 43.796875 39.539062 L 52.496094 39.539062 L 52.496094 22.449219 L 69.339844 22.449219 L 69.339844 39.539062 L 78.042969 39.539062 L 78.042969 0 L 69.339844 0 L 69.339844 14.742188 L 52.441406 14.742188 L 52.441406 0 L 43.796875 0 Z M 89.8125 39.539062 L 117.699219 39.539062 L 117.699219 31.496094 L 98.457031 31.496094 L 98.457031 23.457031 L 115.582031 23.457031 L 115.582031 15.414062 L 98.457031 15.414062 L 98.457031 8.042969 L 116.585938 8.042969 L 116.585938 0 L 89.8125 0 Z M 1.683594 94.269531 L 10.328125 94.269531 L 10.328125 63.945312 L 10.441406 63.945312 L 20.480469 94.269531 L 27.0625 94.269531 L 37.4375 63.945312 L 37.546875 63.945312 L 37.546875 94.269531 L 46.25 94.269531 L 46.25 54.730469 L 33.140625 54.730469 L 23.992188 80.53125 L 23.882812 80.53125 L 14.789062 54.730469 L 1.625 54.730469 Z M 126.726562 149 L 140.847656 149 C 143.710938 149.015625 146.554688 148.582031 149.28125 147.714844 C 151.855469 146.910156 154.257812 145.632812 156.367188 143.953125 C 158.417969 142.28125 160.078125 140.183594 161.242188 137.808594 C 162.527344 135.171875 163.1875 132.273438 163.160156 129.34375 C 163.25 126.167969 162.609375 123.011719 161.285156 120.128906 C 160.121094 117.695312 158.394531 115.574219 156.242188 113.949219 C 153.992188 112.335938 151.4375 111.1875 148.734375 110.578125 C 145.792969 109.839844 142.769531 109.464844 139.734375 109.460938 L 126.671875 109.460938 Z M 135.4375 117.503906 L 140.570312 117.503906 C 142.328125 117.496094 144.082031 117.730469 145.78125 118.195312 C 147.339844 118.621094 148.808594 119.332031 150.109375 120.292969 C 151.34375 121.238281 152.34375 122.453125 153.03125 123.847656 C 153.796875 125.417969 154.179688 127.148438 154.148438 128.894531 C 154.195312 130.84375 153.8125 132.78125 153.03125 134.570312 C 152.363281 136.042969 151.339844 137.324219 150.050781 138.300781 C 148.71875 139.277344 147.203125 139.972656 145.589844 140.34375 C 143.761719 140.765625 141.890625 140.972656 140.011719 140.957031 L 135.382812 140.957031 Z M 175.753906 149 L 191.929688 149 C 193.703125 148.996094 195.472656 148.808594 197.207031 148.441406 C 198.890625 148.105469 200.5 147.480469 201.972656 146.597656 C 203.367188 145.765625 204.550781 144.617188 205.429688 143.246094 C 206.371094 141.671875 206.835938 139.855469 206.769531 138.019531 C 206.777344 136.800781 206.570312 135.589844 206.152344 134.445312 C 205.769531 133.363281 205.171875 132.371094 204.402344 131.519531 C 203.625 130.667969 202.699219 129.96875 201.667969 129.453125 C 200.558594 128.886719 199.359375 128.507812 198.121094 128.335938 L 198.121094 128.226562 C 200.039062 127.671875 201.753906 126.578125 203.0625 125.074219 C 204.347656 123.503906 205.007812 121.515625 204.925781 119.492188 C 205.015625 117.671875 204.570312 115.863281 203.644531 114.296875 C 202.8125 113.003906 201.660156 111.953125 200.296875 111.246094 C 198.839844 110.503906 197.265625 110.011719 195.644531 109.796875 C 193.933594 109.558594 192.207031 109.441406 190.480469 109.4375 L 175.753906 109.4375 Z M 184.457031 116.832031 L 190.367188 116.832031 C 191.0625 116.835938 191.75 116.898438 192.433594 117.023438 C 193.09375 117.136719 193.734375 117.355469 194.328125 117.667969 C 194.886719 117.96875 195.359375 118.402344 195.703125 118.933594 C 196.074219 119.542969 196.257812 120.25 196.226562 120.964844 C 196.246094 121.664062 196.082031 122.355469 195.757812 122.976562 C 195.457031 123.519531 195.023438 123.980469 194.496094 124.316406 C 193.960938 124.660156 193.367188 124.90625 192.746094 125.042969 C 192.09375 125.1875 191.425781 125.265625 190.757812 125.265625 L 184.355469 125.265625 Z M 184.457031 132.636719 L 191.039062 132.636719 C 191.804688 132.640625 192.566406 132.695312 193.324219 132.804688 C 194.09375 132.910156 194.84375 133.117188 195.554688 133.417969 C 196.242188 133.699219 196.847656 134.148438 197.320312 134.726562 C 197.796875 135.367188 198.042969 136.15625 198.011719 136.960938 C 198.039062 137.71875 197.859375 138.472656 197.484375 139.136719 C 197.144531 139.71875 196.675781 140.214844 196.113281 140.589844 C 195.546875 140.964844 194.917969 141.230469 194.25 141.371094 C 193.582031 141.515625 192.894531 141.589844 192.210938 141.59375 L 184.402344 141.59375 Z M 184.457031 132.636719 "/>
</g>
</svg>
